<svg width="162" height="37" viewBox="0 0 162 37" fill="none" xmlns="http://www.w3.org/2000/svg">
<path d="M156 14H158V14.35H157.16V17H156.84V14.35H156L156 14Z" fill="white"/>
<path d="M160.421 17L159.421 14.7V17H159V14H159.474L160.526 16.5L161.579 14H162V17H161.632V14.7L160.632 17H160.421Z" fill="white"/>
<path d="M153 8.71064V14.0936H148.433V21.3362C148.433 22.217 148.048 23 146.942 23C145.837 23 145.452 22.217 145.452 21.3362V14.0936H140.74V21.3362C140.74 22.217 140.356 23 139.25 23C138.144 23 137.76 22.217 137.76 21.3362V14.0936H133C133 8.51489 133.048 10.2277 133.048 8.71064C133.048 2.8383 138.144 0 143.048 0C147.952 0 153 2.78936 153 8.71064Z" fill="white"/>
<path d="M147.135 28.9712C145.573 28.9031 144.11 28.1891 143.096 27H143.048C142.034 28.1891 140.571 28.9031 139.01 28.9712C137.234 28.9942 135.528 28.2805 134.298 27H133C133 32.5228 137.477 37 143 37C148.523 37 153 32.5228 153 27H151.75C150.57 28.2945 148.886 29.0135 147.135 28.9712V28.9712Z" fill="white"/>
<path d="M0 14H4.92111V22.5227C4.92111 23.4481 5.3109 24.2273 6.48028 24.2273C7.64965 24.2273 8.03944 23.4481 8.03944 22.5227V14H12.9606V22.5227C12.9606 23.4481 13.3503 24.2273 14.5197 24.2273C15.6891 24.2273 16.0789 23.4481 16.0789 22.5227V14H21V23.3506C21 26.8084 18.0278 29 14.7633 29C13.1214 28.9179 11.5868 28.1598 10.5244 26.9058C9.46188 28.1598 7.9273 28.9179 6.28538 29C3.02088 29 0.0487239 26.8084 0.0487239 23.3506V14H0Z" fill="white"/>
<path fill-rule="evenodd" clip-rule="evenodd" d="M34.8029 29.5H39.9514V14.5015H34.8029V15.9514C33.6342 14.671 31.992 13.9622 30.2857 14.0016C25.9629 14.0016 23 17.7012 23 22.0008C23 26.3004 26.0114 30 30.3343 30C32.0343 30 33.8314 29.3501 34.7543 27.8502H34.8029V29.5ZM29.2625 24.4401C28.6312 23.7998 28.2964 22.9118 28.3429 22.0008C28.3429 20.1232 29.8216 18.6011 31.6457 18.6011C33.4698 18.6011 34.9486 20.1232 34.9486 22.0008C34.995 22.9118 34.6603 23.7998 34.0289 24.4401C33.3976 25.0804 32.53 25.4118 31.6457 25.3505C30.7614 25.4118 29.8939 25.0804 29.2625 24.4401Z" fill="white"/>
<rect x="44" y="5" width="5" height="24" fill="white"/>
<rect x="52" y="5" width="5" height="24" fill="white"/>
<path fill-rule="evenodd" clip-rule="evenodd" d="M66.1633 5H61V29.4949H66.1633V27.8283H66.212C67.1862 29.3434 68.9398 30 70.6447 30C74.9799 30 78 26.2626 78 21.9192C78 17.5758 75.0287 13.8384 70.6934 13.8384C68.9822 13.7986 67.3353 14.5147 66.1633 15.8081V5ZM69.3295 25.3535C67.5002 25.3535 66.0172 23.8159 66.0172 21.9192C66.0172 20.0225 67.5002 18.4848 69.3295 18.4848C71.1589 18.4848 72.6418 20.0225 72.6418 21.9192C72.6418 23.8159 71.1589 25.3535 69.3295 25.3535Z" fill="white"/>
<path fill-rule="evenodd" clip-rule="evenodd" d="M88 30C92.8232 30 97 27.1 97 22C97 16.9 92.8232 14 88 14C83.1768 14 79 16.85 79 22C79 27.15 83.1768 30 88 30ZM88 25.4C86.1326 25.4 84.6188 23.8778 84.6188 22C84.6188 20.1222 86.1326 18.6 88 18.6C89.8674 18.6 91.3812 20.1222 91.3812 22C91.3812 23.8778 89.8674 25.4 88 25.4Z" fill="white"/>
<path d="M97.358 14H103.905L106.476 17.1L109.095 14H115.788L109.774 20.85L117 29H110.259L106.476 24.55L102.741 29H96L103.226 20.85L97.358 14V14Z" fill="white"/>
</svg>
