<svg width="20" height="37" viewBox="0 0 20 37" fill="none" xmlns="http://www.w3.org/2000/svg">
<path d="M20 8.71064V14.0936H15.4327V21.3362C15.4327 22.217 15.0481 23 13.9423 23C12.8365 23 12.4519 22.217 12.4519 21.3362V14.0936H7.74038V21.3362C7.74038 22.217 7.35577 23 6.25 23C5.14423 23 4.75962 22.217 4.75962 21.3362V14.0936H0C0 8.51489 0.0480769 10.2277 0.0480769 8.71064C0.0480769 2.8383 5.14423 0 10.0481 0C14.9519 0 20 2.78936 20 8.71064Z" fill="white"/>
<path d="M14.1346 28.9712C12.5732 28.9031 11.1103 28.1891 10.0962 27H10.0481C9.03388 28.1891 7.57102 28.9031 6.00962 28.9712C4.23405 28.9942 2.52829 28.2805 1.29808 27H0C0 32.5228 4.47715 37 10 37C15.5228 37 20 32.5228 20 27H18.75C17.5696 28.2945 15.8859 29.0135 14.1346 28.9712Z" fill="white"/>
</svg>
