<svg width="10" height="15" xmlns="http://www.w3.org/2000/svg" clip-rule="evenodd" xml:space="preserve">

 <g>
  <title>Layer 1</title>
  <g stroke="null" id="Layer_x0020_1">
   <metadata stroke="null" id="CorelCorpID_0Corel-Layer"/>
   <path stroke="null" id="svg_1" fill-rule="nonzero" fill="#2B2A29" d="m6.32902,11.24514l-2.40901,0c-0.00647,-0.34829 -0.00971,-0.55792 -0.00971,-0.63531c0,-0.78044 0.129,-1.42217 0.38701,-1.9253c0.25801,-0.50631 0.77721,-1.07065 1.55118,-1.70272c0.77397,-0.62884 1.23838,-1.04163 1.38669,-1.23838c0.23541,-0.30633 0.35153,-0.6482 0.35153,-1.01903c0,-0.51602 -0.2064,-0.95782 -0.61919,-1.32866c-0.41279,-0.36765 -0.96748,-0.55145 -1.66724,-0.55145c-0.67404,0 -1.23838,0.19345 -1.69307,0.57723c-0.45151,0.38378 -0.76432,0.97071 -0.93523,1.75757l-2.43479,-0.30315c0.06768,-1.12868 0.54821,-2.0865 1.4383,-2.87336c0.89327,-0.78686 2.06067,-1.18035 3.51191,-1.18035c1.52216,0 2.7347,0.3999 3.63768,1.19647c0.89974,0.79651 1.3512,1.72209 1.3512,2.78308c0,0.5837 -0.16767,1.13839 -0.4966,1.66082c-0.33216,0.52243 -1.03845,1.23514 -2.12199,2.13488c-0.56116,0.46759 -0.90945,0.84171 -1.04487,1.1255c-0.13542,0.28379 -0.19674,0.7901 -0.1838,1.52216zm-2.40901,3.56994l0,-2.65408l2.65408,0l0,2.65408l-2.65408,0z" class="fil0"/>
  </g>
 </g>
</svg>
